SplineFontDB: 3.0
FontName: Techna-Regular
FullName: Techna Regular
FamilyName: Techna
Weight: Regular
Copyright: Copyright (c) 2019, Carl Enlund
UComments: "2019-5-11: Created with FontForge (http://fontforge.org)"
Version: 001.000
ItalicAngle: 0
UnderlinePosition: -100
UnderlineWidth: 50
Ascent: 800
Descent: 200
InvalidEm: 0
LayerCount: 2
Layer: 0 0 "Back" 1
Layer: 1 0 "Fore" 0
XUID: [1021 637 837473831 1446149]
FSType: 0
OS2Version: 0
OS2_WeightWidthSlopeOnly: 0
OS2_UseTypoMetrics: 1
CreationTime: 1557605594
ModificationTime: 1557947417
PfmFamily: 17
TTFWeight: 400
TTFWidth: 5
LineGap: 90
VLineGap: 0
OS2TypoAscent: 0
OS2TypoAOffset: 1
OS2TypoDescent: 0
OS2TypoDOffset: 1
OS2TypoLinegap: 0
OS2WinAscent: 0
OS2WinAOffset: 1
OS2WinDescent: 0
OS2WinDOffset: 1
HheadAscent: 0
HheadAOffset: 1
HheadDescent: 0
HheadDOffset: 1
OS2Vendor: 'PfEd'
MarkAttachClasses: 1
DEI: 91125
LangName: 1033
Encoding: ISO8859-1
UnicodeInterp: none
NameList: AGL For New Fonts
DisplaySize: -72
AntiAlias: 1
FitToEm: 0
WinInfo: 0 12 9
BeginPrivate: 0
EndPrivate
Grid
-1000 528 m 0
 2000 528 l 1024
-1000 404 m 0
 2000 404 l 1024
-1000 413.916992188 m 0
 2000 413.916992188 l 1024
-1000 688 m 0
 2000 688 l 1024
EndSplineSet
BeginChars: 256 32

StartChar: D
Encoding: 68 68 0
Width: 711
VWidth: 0
Flags: HWO
LayerCount: 2
Fore
SplineSet
332 121 m 5
 332 0 l 5
 147 0 l 1
 147 121 l 1
 332 121 l 5
342 688 m 5
 336 567 l 5
 147 567 l 1
 147 688 l 1
 342 688 l 5
65 0 m 1
 65 688 l 1
 199 688 l 1
 199 0 l 1
 65 0 l 1
342 688 m 5
 564.498591549 688 681 540.865497076 681 348 c 3
 681 150.017595308 561.06197183 0 332 0 c 5
 332 121 l 5
 477.946902655 121 549 221.337837838 549 346 c 3
 549 468.445945946 479.256637169 567 336 567 c 5
 342 688 l 5
EndSplineSet
EndChar

StartChar: E
Encoding: 69 69 1
Width: 566
VWidth: 0
Flags: HW
LayerCount: 2
Fore
SplineSet
130 412.916992188 m 1
 458 412.916992188 l 1
 427 293 l 1
 129 292.916992188 l 1
 130 412.916992188 l 1
130 124 m 1
 531 124 l 1
 564 0 l 1
 130 0 l 1
 130 124 l 1
130 688 m 1
 528 688 l 1
 496 564 l 1
 130 564 l 1
 130 688 l 1
65 0 m 1
 65 688 l 1
 199 688 l 1
 199 0 l 1
 65 0 l 1
EndSplineSet
EndChar

StartChar: C
Encoding: 67 67 2
Width: 630
VWidth: 0
Flags: HW
LayerCount: 2
Fore
SplineSet
572 547 m 1
 549.413333334 552.5 495 569 418 569 c 3
 308.343161753 569 158 520.896720852 158 345 c 3
 158 179 295.00731445 112 426 112 c 3
 487.186813187 112 560.802197802 127.141151951 600 145 c 5
 600 17 l 1
 566.663366337 3.03703703704 500.549661282 -12 418 -12 c 3
 242.425974026 -12 25 71.5453725962 25 339 c 3
 25 629.174890775 268.901000976 697 437 697 c 3
 514.827935512 697 577.318181818 683.105263158 605 675 c 1
 572 547 l 1
EndSplineSet
EndChar

StartChar: G
Encoding: 71 71 3
Width: 714
VWidth: 0
Flags: HW
LayerCount: 2
Fore
SplineSet
603 541 m 1
 576.880434783 548 514 568 425 568 c 3
 307.322222222 568 158 523 158 345 c 3
 158 179 287.128571429 112 434 112 c 3
 499.063583815 112 560.242774566 129 602 154 c 1
 651 32 l 1
 609.47639485 10.4680851064 523 -12 426 -12 c 3
 235.880597015 -12 25 72 25 339 c 7
 25 630 268.224637681 697 436 697 c 3
 534.058252427 697 602.990291262 680 636 670 c 1
 603 541 l 1
523 32 m 1
 523 354 l 1
 651 354 l 1
 651 32 l 1
 523 32 l 1
363 404 m 1
 651 404 l 1
 651 285 l 1
 332 285 l 1
 363 404 l 1
EndSplineSet
EndChar

StartChar: T
Encoding: 84 84 4
Width: 584
VWidth: 0
Flags: HW
LayerCount: 2
Fore
SplineSet
576 688 m 5
 576 564 l 5
 1 564 l 1
 33 688 l 1
 576 688 l 5
232 0 m 1
 232 639 l 1
 366 639 l 1
 366 0 l 1
 232 0 l 1
EndSplineSet
EndChar

StartChar: H
Encoding: 72 72 5
Width: 671
VWidth: 0
Flags: HW
LayerCount: 2
Fore
SplineSet
126 413.916992188 m 1
 654 413.916992188 l 1
 631 291 l 5
 126 290.916992188 l 1
 126 413.916992188 l 1
441 0 m 1
 441 688 l 1
 575 688 l 1
 575 0 l 1
 441 0 l 1
65 0 m 1
 65 688 l 1
 199 688 l 1
 199 0 l 1
 65 0 l 1
EndSplineSet
EndChar

StartChar: N
Encoding: 78 78 6
Width: 651
VWidth: 0
Flags: HW
LayerCount: 2
Fore
SplineSet
105 652 m 1
 191 688 l 1
 221 688 l 1
 557 36 l 5
 472 0 l 1
 442 0 l 1
 105 652 l 1
452 0 m 1
 452 688 l 1
 586 688 l 1
 586 0 l 1
 452 0 l 1
65 0 m 1
 65 688 l 1
 199 688 l 1
 199 0 l 1
 65 0 l 1
EndSplineSet
EndChar

StartChar: A
Encoding: 65 65 7
Width: 642
VWidth: 0
Flags: HW
LayerCount: 2
Back
SplineSet
852 403.916992188 m 1
 1343 403.916992188 l 1
 1313 285.916992188 l 1
 852 285.916992188 l 1
 852 403.916992188 l 1
1116 0 m 1
 1116 688 l 1
 1250 688 l 1
 1250 0 l 1
 1116 0 l 1
852 688 m 1
 1171 688 l 1
 1171 566 l 1
 852 566 l 1
 852 688 l 1
771 0 m 1
 771 688 l 1
 905 688 l 1
 905 0 l 1
 771 0 l 1
EndSplineSet
Fore
SplineSet
464 0 m 5
 302 688 l 5
 437 688 l 5
 600 0 l 5
 464 0 l 5
191 688 m 5
 428 688 l 5
 428 566 l 5
 189 566 l 5
 191 688 l 5
15 0 m 5
 178 688 l 5
 311 688 l 5
 149 0 l 5
 15 0 l 5
129 298.916992188 m 5
 627 298.916992188 l 5
 605 180.916992188 l 5
 129 180.916992188 l 5
 129 298.916992188 l 5
EndSplineSet
EndChar

StartChar: B
Encoding: 66 66 8
Width: 600
VWidth: 0
Flags: HW
LayerCount: 2
Fore
SplineSet
336 118 m 1
 347 0 l 1
 147 0 l 1
 147 118 l 1
 336 118 l 1
384 406 m 1
 384 292 l 1
 147 292 l 1
 147 406 l 1
 384 406 l 1
336 384 m 1
 477.858407079 384 565 304.771556528 565 192 c 3
 565 87.3669525525 487.081690141 0 347 0 c 1
 336 118 l 1
 398.548672567 118 429 157.689189189 429 207 c 3
 429 254.094594595 398.548672567 292 336 292 c 1
 336 384 l 1
342 688 m 1
 332 568 l 1
 147 568 l 1
 147 688 l 1
 342 688 l 1
65 0 m 1
 65 688 l 1
 199 688 l 1
 199 0 l 1
 65 0 l 1
342 688 m 1
 478 688 548 605.661050157 548 511 c 3
 548 404.27887753 469 331 332 331 c 1
 332 406 l 1
 386.477876106 406 413 442.567567568 413 488 c 3
 413 532.324324324 386.477876106 568 332 568 c 1
 342 688 l 1
EndSplineSet
EndChar

StartChar: F
Encoding: 70 70 9
Width: 535
VWidth: 0
InSpiro: 1
Flags: HW
LayerCount: 2
Fore
SplineSet
130 406.917 m 1
 456 406.917 l 1
 424 286 l 1
 130 286 l 1
 130 406.917 l 1
  Spiro
    130 406.917 v
    456 406.917 v
    424 286 v
    130 286 v
    0 0 z
  EndSpiro
130 688 m 1
 530 688 l 1
 497 564 l 1
 130 564 l 1
 130 688 l 1
  Spiro
    130 688 v
    530 688 v
    497 564 v
    130 564 v
    0 0 z
  EndSpiro
65 0 m 1
 65 688 l 1
 199 688 l 1
 199 0 l 1
 65 0 l 1
  Spiro
    65 0 v
    65 688 v
    199 688 v
    199 0 v
    0 0 z
  EndSpiro
EndSplineSet
EndChar

StartChar: I
Encoding: 73 73 10
Width: 274
VWidth: 0
Flags: HW
LayerCount: 2
Fore
SplineSet
70 0 m 1
 70 688 l 1
 204 688 l 1
 204 0 l 1
 70 0 l 1
EndSplineSet
EndChar

StartChar: L
Encoding: 76 76 11
Width: 536
VWidth: 0
Flags: HW
LayerCount: 2
Fore
SplineSet
65 0 m 1
 65 688 l 1
 199 688 l 1
 199 0 l 1
 65 0 l 1
130 0 m 1
 130 124 l 1
 531 124 l 5
 500 0 l 5
 130 0 l 1
EndSplineSet
EndChar

StartChar: M
Encoding: 77 77 12
Width: 761
VWidth: 0
Flags: HW
LayerCount: 2
Fore
SplineSet
562 0 m 1
 562 688 l 1
 696 688 l 1
 696 0 l 1
 562 0 l 1
332 270 m 5
 332 332 l 5
 538 688 l 1
 656 688 l 1
 435 270 l 1
 332 270 l 5
328 270 m 5
 103 688 l 1
 225 688 l 1
 433 334 l 1
 433 270 l 1
 328 270 l 5
65 0 m 1
 65 688 l 1
 199 688 l 1
 199 0 l 1
 65 0 l 1
EndSplineSet
EndChar

StartChar: O
Encoding: 79 79 13
Width: 798
VWidth: 0
Flags: HW
LayerCount: 2
Fore
SplineSet
399 706 m 3
 643.691489362 706 773 538.621687238 773 346 c 3
 773 151.155638656 643.691489362 -18 399 -18 c 3
 154.308510638 -18 25 151.155638656 25 346 c 3
 25 538.621687238 154.308510638 706 399 706 c 3
399 586 m 3
 240.303346278 586 157 470.033163265 157 346 c 7
 157 219.899617347 240.303346278 102 399 102 c 3
 557.696653722 102 641 219.899617347 641 346 c 3
 641 470.033163265 557.696653722 586 399 586 c 3
EndSplineSet
EndChar

StartChar: P
Encoding: 80 80 14
Width: 571
VWidth: 0
Flags: HW
LayerCount: 2
Fore
SplineSet
327 395 m 5
 330 275 l 1
 147 275 l 1
 147 395 l 1
 327 395 l 5
336 688 m 1
 327 566 l 5
 147 566 l 1
 147 688 l 1
 336 688 l 1
65 0 m 1
 65 688 l 1
 199 688 l 1
 199 0 l 1
 65 0 l 1
336 688 m 1
 478.136485579 688 551 599.719298246 551 484 c 3
 551 365.096774194 476.073852373 275 330 275 c 1
 327 395 l 5
 387.957172511 395 416 432.908249165 416 482 c 3
 416 528.54054054 387.957172511 566 327 566 c 5
 336 688 l 1
EndSplineSet
EndChar

StartChar: Q
Encoding: 81 81 15
Width: 798
VWidth: 0
Flags: HW
LayerCount: 2
Fore
SplineSet
662 -61 m 5
 355 227 l 5
 438 313 l 5
 745 25 l 5
 662 -61 l 5
EndSplineSet
Refer: 13 79 N 1 0 0 1 0 0 2
EndChar

StartChar: R
Encoding: 82 82 16
Width: 586
VWidth: 0
Flags: HW
LayerCount: 2
Fore
SplineSet
327 395 m 1
 330 280 l 1
 147 280 l 1
 147 395 l 1
 327 395 l 1
338 688 m 1
 327 566 l 1
 147 566 l 1
 147 688 l 1
 338 688 l 1
65 0 m 1
 65 688 l 1
 199 688 l 1
 199 0 l 1
 65 0 l 1
338 688 m 1
 473.785849694 688 551 599.883040936 551 491 c 3
 551 370.096774194 476.073852373 280 330 280 c 1
 327 395 l 1
 387.957172511 395 416 432.908249165 416 482 c 3
 416 528.54054054 387.957172511 566 327 566 c 1
 338 688 l 1
409 0 m 5
 256 328 l 5
 404 328 l 1
 556 0 l 1
 409 0 l 5
EndSplineSet
EndChar

StartChar: U
Encoding: 85 85 17
Width: 626
VWidth: 0
Flags: HW
LayerCount: 2
Fore
SplineSet
197 230 m 6
 197 148.735351562 235.509765625 107 313 107 c 7
 390.490234375 107 429 148.735351562 429 230 c 6
 429 688 l 1
 563 688 l 1
 563 224 l 6
 563 74.0771484375 476.563476562 -17 313 -17 c 7
 149.436523438 -17 63 74.0771484375 63 224 c 6
 63 688 l 1
 197 688 l 1
 197 230 l 6
EndSplineSet
EndChar

StartChar: V
Encoding: 86 86 18
Width: 591
VWidth: 0
Flags: HW
LayerCount: 2
Fore
SplineSet
259 0 m 1
 438 688 l 5
 576 688 l 1
 388 0 l 1
 259 0 l 1
203 0 m 1
 15 688 l 1
 157 688 l 1
 336 0 l 1
 203 0 l 1
EndSplineSet
EndChar

StartChar: Z
Encoding: 90 90 19
Width: 560
VWidth: 0
Flags: HW
LayerCount: 2
Fore
SplineSet
26 20 m 1
 108 121 l 1
 555 121 l 1
 522 0 l 1
 26 0 l 1
 26 20 l 1
530 668 m 5
 447 567 l 5
 22 567 l 1
 55 688 l 1
 530 688 l 5
 530 668 l 5
26 20 m 1
 376 654 l 5
 530 668 l 5
 180 36 l 1
 26 20 l 1
EndSplineSet
EndChar

StartChar: W
Encoding: 87 87 21
Width: 865
VWidth: 0
Flags: HW
LayerCount: 2
Fore
SplineSet
581 0 m 1
 700 688 l 1
 835 688 l 1
 707 0 l 1
 581 0 l 1
548 0 m 1
 380 688 l 1
 499 688 l 1
 663 0 l 1
 548 0 l 1
206 0 m 1
 370 688 l 1
 485 688 l 1
 317 0 l 1
 206 0 l 1
158 0 m 1
 30 688 l 1
 169 688 l 1
 288 0 l 1
 158 0 l 1
EndSplineSet
EndChar

StartChar: Y
Encoding: 89 89 22
Width: 575
VWidth: 0
Flags: HW
LayerCount: 2
Fore
SplineSet
221 0 m 5
 221 329 l 5
 355 329 l 5
 355 0 l 5
 221 0 l 5
224 255 m 5
 431 688 l 1
 575 688 l 1
 351 243 l 5
 224 255 l 5
223 243 m 5
 0 688 l 1
 148 688 l 1
 355 259 l 5
 223 243 l 5
EndSplineSet
EndChar

StartChar: X
Encoding: 88 88 23
Width: 598
VWidth: 0
Flags: HW
LayerCount: 2
Back
SplineSet
155 0 m 5
 6 0 l 5
 437 688 l 5
 585 688 l 5
 155 0 l 5
445 0 m 5
 23 688 l 5
 177 688 l 5
 598 0 l 5
 445 0 l 5
EndSplineSet
Fore
SplineSet
155 0 m 5
 6 0 l 5
 210.015625 355.854492188 l 5
 23 688 l 5
 177 688 l 5
 306.1953125 449.426757812 l 5
 437 688 l 5
 585 688 l 5
 394.020507812 357.194335938 l 5
 598 0 l 5
 445 0 l 5
 297.840820312 263.62109375 l 5
 155 0 l 5
EndSplineSet
EndChar

StartChar: S
Encoding: 83 83 24
Width: 508
VWidth: 0
Flags: HW
LayerCount: 2
Fore
SplineSet
466 665 m 1
 435 540 l 1
 382.265625 567.729492188 328.497070312 578 283 578 c 3
 214 578 171 555.302734375 171 503 c 3
 171 462 192.1953125 446.470703125 261 418 c 2
 319 394 l 2
 429.170898438 348.412109375 488 303 488 192 c 3
 488 60.650390625 392 -11 248 -11 c 3
 162.838867188 -11 90 12 45 40 c 1
 45 175 l 1
 107.104492188 129.666992188 183.6953125 107 253 107 c 3
 318 107 355 131 355 189 c 3
 355 231.516601562 324.44921875 246.435546875 252 277 c 2
 188 304 l 2
 106.109375 337.268554688 38 376 38 500 c 3
 38 622.388671875 133 699 292 699 c 3
 359.953125 699 427.905273438 684.576171875 466 665 c 1
EndSplineSet
EndChar

StartChar: K
Encoding: 75 75 25
Width: 603
VWidth: 0
Flags: HW
LayerCount: 2
Fore
SplineSet
191 413.916992188 m 1
 348 413.916992188 l 1
 606 0 l 1
 451 0 l 1
 191 413.916992188 l 1
126 413.916992188 m 1
 281 413.916992188 l 1
 281 294 l 1
 126 293.916992188 l 1
 126 413.916992188 l 1
199 294 m 1
 441 688 l 5
 590 688 l 5
 348 294 l 1
 199 294 l 1
65 0 m 1
 65 688 l 1
 199 688 l 1
 199 0 l 1
 65 0 l 1
EndSplineSet
EndChar

StartChar: J
Encoding: 74 74 26
Width: 486
VWidth: 0
Flags: HW
LayerCount: 2
Fore
SplineSet
359 688 m 1
 359 564 l 1
 44 564 l 5
 76 688 l 5
 170.333007812 688 264.666992188 688 359 688 c 1
40 146 m 1
 81.4951171875 125.73046875 118.338867188 115 167 115 c 3
 245.080078125 115 289 149 289 228 c 2
 289 688 l 1
 423 688 l 1
 423 217 l 2
 423 65 339.424804688 -9 181 -9 c 3
 130.143554688 -9 69.1728515625 1.73046875 40 22 c 1
 40 146 l 1
EndSplineSet
EndChar

StartChar: Odieresis
Encoding: 214 214 27
Width: 798
VWidth: 0
Flags: HW
LayerCount: 2
Fore
SplineSet
449 652 m 1
 449 820 l 1
 593 820 l 1
 593 652 l 1
 449 652 l 1
205 652 m 1
 205 820 l 1
 349 820 l 1
 349 652 l 1
 205 652 l 1
EndSplineSet
Refer: 13 79 N 1 0 0 1 0 0 2
EndChar

StartChar: o
Encoding: 111 111 28
Width: 626
VWidth: 0
Flags: HW
LayerCount: 2
Fore
SplineSet
313 543 m 3
 500.116166393 543 599 414.2109375 599 266 c 3
 599 115.584960938 500.116166393 -15 313 -15 c 3
 125.883833607 -15 27 115.584960938 27 266 c 3
 27 414.2109375 125.883833607 543 313 543 c 3
313 427 m 3
 210.700195312 427 157 349.205279541 157 266 c 3
 157 180.727336604 210.700195312 101 313 101 c 3
 415.299804688 101 469 180.727336604 469 266 c 3
 469 349.205279541 415.299804688 427 313 427 c 3
EndSplineSet
EndChar

StartChar: i
Encoding: 105 105 29
Width: 259
VWidth: 0
Flags: HW
LayerCount: 2
Back
SplineSet
354 543 m 7
 543.07931747 543 643 414.211422318 643 266 c 7
 643 115.58463314 543.07931747 -15 354 -15 c 7
 164.92068253 -15 65 115.58463314 65 266 c 7
 65 414.211422318 164.92068253 543 354 543 c 7
354 425 m 7
 249.076687117 425 194 348.17223669 194 266 c 7
 194 181.760383331 249.076687117 103 354 103 c 7
 458.923312883 103 514 181.760383331 514 266 c 7
 514 348.17223669 458.923312883 425 354 425 c 7
EndSplineSet
Fore
SplineSet
65 592 m 5
 65 708 l 1
 194 708 l 1
 194 592 l 5
 65 592 l 5
65 0 m 1
 65 528 l 1
 194 528 l 1
 194 0 l 1
 65 0 l 1
EndSplineSet
EndChar

StartChar: hyphen
Encoding: 45 45 30
Width: 399
VWidth: 0
Flags: HW
LayerCount: 2
Fore
SplineSet
364 363 m 5
 364 239 l 5
 23 239 l 5
 55 363 l 5
 364 363 l 5
EndSplineSet
EndChar

StartChar: l
Encoding: 108 108 31
Width: 259
VWidth: 0
Flags: HW
LayerCount: 2
Fore
SplineSet
65 0 m 1
 65 708 l 5
 194 708 l 5
 194 0 l 1
 65 0 l 1
EndSplineSet
EndChar
